<svg xmlns="http://www.w3.org/2000/svg" width="48" height="96" viewBox="0 0 48 96">
  <!-- Shadow -->
  <ellipse cx="24" cy="90" rx="16" ry="5" fill="#C9A86B" opacity="0.45"/>
  <!-- Left arm -->
  <rect x="5" y="34" width="13" height="7" rx="3" fill="#3D6530"/>
  <rect x="5" y="21" width="13" height="20" rx="6" fill="#4A7A3A"/>
  <rect x="7" y="22" width="4" height="17" rx="2" fill="#5A9642" opacity="0.6"/>
  <!-- Right arm -->
  <rect x="30" y="40" width="13" height="7" rx="3" fill="#3D6530"/>
  <rect x="30" y="27" width="13" height="20" rx="6" fill="#4A7A3A"/>
  <rect x="32" y="28" width="4" height="17" rx="2" fill="#5A9642" opacity="0.6"/>
  <!-- Main trunk -->
  <rect x="16" y="6" width="16" height="82" rx="8" fill="#4A7A3A"/>
  <rect x="20" y="7" width="5" height="80" rx="3" fill="#5A9642" opacity="0.55"/>
  <!-- Outlines -->
  <rect x="5" y="21" width="13" height="20" rx="6" fill="none" stroke="#2D5020" stroke-width="1.5"/>
  <rect x="30" y="27" width="13" height="20" rx="6" fill="none" stroke="#2D5020" stroke-width="1.5"/>
  <rect x="16" y="6" width="16" height="82" rx="8" fill="none" stroke="#2D5020" stroke-width="2"/>
</svg>
