<svg xmlns="http://www.w3.org/2000/svg" viewBox="0 0 64 88" width="64" height="88">
  <!-- === WALK 2 v7 — Legs passing, body bob 2px down === -->

  <!-- Bug net (2px down) -->
  <line x1="40" y1="52" x2="50" y2="16" stroke="#8B6B3E" stroke-width="2.5" stroke-linecap="round"/>
  <ellipse cx="50" cy="12" rx="8" ry="6.5" fill="none" stroke="#0C77D8" stroke-width="2.5"/>
  <path d="M42,12 Q44,22 50,28 Q56,22 58,12" fill="none" stroke="white" stroke-width="0.9" opacity="0.55"/>
  <path d="M43,8 Q45,20 50,26 Q55,20 57,8" fill="none" stroke="white" stroke-width="0.8" opacity="0.5"/>
  <path d="M46,6 Q48,18 50,24 Q52,18 54,6" fill="none" stroke="white" stroke-width="0.7" opacity="0.45"/>
  <path d="M50,5.5 L50,22" stroke="white" stroke-width="0.6" opacity="0.4"/>
  <path d="M43,10 Q50,12 57,10" fill="none" stroke="white" stroke-width="0.6" opacity="0.4"/>
  <path d="M42,14 Q50,17 58,14" fill="none" stroke="white" stroke-width="0.6" opacity="0.4"/>
  <path d="M44,19 Q50,21.5 56,19" fill="none" stroke="white" stroke-width="0.5" opacity="0.35"/>
  <path d="M47,23 Q50,25 53,23" fill="none" stroke="white" stroke-width="0.5" opacity="0.3"/>

  <!-- FAR LEG (left — straight, 2px down) -->
  <line x1="25" y1="66" x2="23" y2="81" stroke="#123250" stroke-width="2.5" stroke-linecap="round"/>
  <path d="M20,81 L26,81 C27,81 27,83 26,83 L19,83 C18,83 18,81 20,81 Z" fill="#111"/>

  <!-- FAR ARM (left — neutral, 2px down) -->
  <line x1="20" y1="44" x2="15" y2="58" stroke="#123250" stroke-width="2" stroke-linecap="round"/>
  <path d="M13,57.5 C13,56.5 14,56 15.5,56.5 C16.5,57 17,58 16,59 C15,59.5 13.5,59 13,57.5 Z" fill="#F0BA8C"/>

  <!-- BODY (2px down) -->
  <path d="M22,38 C19,39 18,44 18,52 C18,59 20,64 23,66 L35,66 C38,64 40,59 40,52 C40,44 39,39 36,38 Z" fill="#7BB8E0" stroke="#123250" stroke-width="2"/>
  <path d="M18,52 C18,44 19,39 22,38 L24,38 L23,66 C20,64 18,59 18,52 Z" fill="#5a9cc8" opacity="0.35"/>
  <path d="M40,52 C40,44 39,39 36,38 L34,38 L35,66 C38,64 40,59 40,52 Z" fill="#5a9cc8" opacity="0.35"/>
  <rect x="21" y="43" width="5" height="2.8" rx="0.7" fill="white" opacity="0.7"/>
  <path d="M22.3,45 C22.3,44.2 22.7,44 23,44.5 C23.3,44 23.7,44.2 23.7,45" fill="none" stroke="#0C77D8" stroke-width="0.5" stroke-linecap="round"/>

  <!-- NEAR LEG (right — straight, 2px down) -->
  <line x1="33" y1="66" x2="35" y2="81" stroke="#123250" stroke-width="2.5" stroke-linecap="round"/>
  <path d="M32,81 L38,81 C39,81 39,83 38,83 L31,83 C30,83 30,81 32,81 Z" fill="#111"/>

  <!-- NEAR ARM (right — holds net, 2px down) -->
  <line x1="38" y1="44" x2="40" y2="52" stroke="#123250" stroke-width="2" stroke-linecap="round"/>
  <path d="M39,51.5 C39,50.5 40,50 41.5,50.5 C42.5,51 43,52 42,53 C41,53.5 39.5,53 39,51.5 Z" fill="#F0BA8C"/>

  <!-- HEAD (2px down) -->
  <ellipse cx="29" cy="22" rx="16" ry="16" fill="#F0BA8C" stroke="#123250" stroke-width="2.5"/>
  <ellipse cx="29" cy="24" rx="12" ry="12" fill="#FADED0"/>

  <!-- CAP (2px down) -->
  <path d="M13,20 C13,6 21,2 29,2 C37,2 45,6 45,20 Z" fill="#1a2a40" stroke="#123250" stroke-width="2"/>
  <path d="M10,19 C16,17.5 25,16.5 34,17 C40,17.5 47,18.5 48,20 C43,21 33,21.5 23,21 C15,20.5 11,20 10,19 Z" fill="#1a2a40" stroke="#123250" stroke-width="1.2"/>

  <path d="M29,7.5 L33,11.5 L29,15.5 L25,11.5 Z" fill="#0C77D8"/>
  <path d="M27.5,12.5 C27.5,11 28.2,10.5 29,11.8 C29.8,10.5 30.5,11 30.5,12.5" fill="none" stroke="white" stroke-width="1.3" stroke-linecap="round"/>

  <circle cx="23" cy="25" r="2" fill="#111"/>
  <circle cx="35" cy="24.5" r="2" fill="#111"/>
  <circle cx="24" cy="24.2" r="0.7" fill="white"/>
  <circle cx="36" cy="23.7" r="0.7" fill="white"/>
  <circle cx="29" cy="29" r="1.2" fill="#d4967a"/>
  <path d="M26,32 Q29,34.5 32,32" stroke="#c48060" stroke-width="1.2" fill="none" stroke-linecap="round"/>
</svg>
